HIERARCHY
ROOT Hips
{
	OFFSET 0.000000 0.000000 0.000000
	CHANNELS 6 Xposition Yposition Zposition Xrotation Yrotation Zrotation
	JOINT LeftUpLeg_virtual
	{
		OFFSET 0.000000 0.000000 0.000000
		CHANNELS 3 Xrotation Yrotation Zrotation
		JOINT LeftUpLeg
		{
			OFFSET 15.427100 -6.655098 0.678600
			CHANNELS 3 Xrotation Yrotation Zrotation
			JOINT LeftLeg
			{
				OFFSET 4.081073 -39.591068 13.024000
				CHANNELS 3 Xrotation Yrotation Zrotation
				JOINT LeftFoot
				{
					OFFSET -4.081074 -37.707932 -15.979700
					CHANNELS 3 Xrotation Yrotation Zrotation
					JOINT LeftToeBase
					{
						OFFSET 5.346399 -15.068900 20.645000
						CHANNELS 3 Xrotation Yrotation Zrotation
						JOINT LeftToe_End
						{
							OFFSET 2.754700 0.931300 11.300900
							CHANNELS 3 Xrotation Yrotation Zrotation
							End Site
							{
								OFFSET 0 0 0
							}
						}
					}
				}
			}
		}
	}
	JOINT RightUpLeg_virtual
	{
		OFFSET 0.000000 0.000000 0.000000
		CHANNELS 3 Xrotation Yrotation Zrotation
		JOINT RightUpLeg
		{
			OFFSET -15.569500 -6.655098 0.678600
			CHANNELS 3 Xrotation Yrotation Zrotation
			JOINT RightLeg
			{
				OFFSET -4.081825 -39.591045 13.023800
				CHANNELS 3 Xrotation Yrotation Zrotation
				JOINT RightFoot
				{
					OFFSET 4.081824 -37.707954 -15.979600
					CHANNELS 3 Xrotation Yrotation Zrotation
					JOINT RightToeBase
					{
						OFFSET -5.346400 -15.068900 20.645000
						CHANNELS 3 Xrotation Yrotation Zrotation
						JOINT RightToe_End
						{
							OFFSET -2.754700 0.931300 11.300900
							CHANNELS 3 Xrotation Yrotation Zrotation
							End Site
							{
								OFFSET 0 0 0
							}
						}
					}
				}
			}
		}
	}
	JOINT Spine_virtual
	{
		OFFSET 0.000000 0.000000 0.000000
		CHANNELS 3 Xrotation Yrotation Zrotation
		JOINT Spine
		{
			OFFSET -0.279200 12.230698 -2.892100
			CHANNELS 3 Xrotation Yrotation Zrotation
			JOINT Spine1
			{
				OFFSET -0.232667 10.192268 -1.242267
				CHANNELS 3 Xrotation Yrotation Zrotation
				JOINT Spine1_split
				{
					OFFSET -0.232667 10.192268 -1.242267
					CHANNELS 3 Xrotation Yrotation Zrotation
					JOINT Spine2
					{
						OFFSET -0.232667 10.192268 -1.242267
						CHANNELS 3 Xrotation Yrotation Zrotation
						JOINT Neck_virtual
						{
							OFFSET 0.000000 0.000000 0.000000
							CHANNELS 3 Xrotation Yrotation Zrotation
							JOINT Neck
							{
								OFFSET -0.418800 17.814194 8.416900
								CHANNELS 3 Xrotation Yrotation Zrotation
								JOINT Head
								{
									OFFSET 0.000000 7.031097 3.806800
									CHANNELS 3 Xrotation Yrotation Zrotation
									JOINT HeadTop_End
									{
										OFFSET 0.000000 24.646606 12.978600
										CHANNELS 3 Xrotation Yrotation Zrotation
										End Site
										{
											OFFSET 0 0 0
										}
									}
								}
							}
						}
						JOINT LeftShoulder_virtual
						{
							OFFSET 0.000000 0.000000 0.000000
							CHANNELS 3 Xrotation Yrotation Zrotation
							JOINT LeftShoulder
							{
								OFFSET 8.476499 7.247704 -3.868750
								CHANNELS 3 Xrotation Yrotation Zrotation
								JOINT LeftShoulder_split
								{
									OFFSET 8.476499 7.247704 -3.868750
									CHANNELS 3 Xrotation Yrotation Zrotation
									JOINT LeftArm
									{
										OFFSET 9.308998 -2.777710 0.208600
										CHANNELS 3 Xrotation Yrotation Zrotation
										JOINT LeftForeArm
										{
											OFFSET 29.972298 0.000000 0.000000
											CHANNELS 3 Xrotation Yrotation Zrotation
											JOINT LeftHand
											{
												OFFSET 26.026505 0.000000 0.000000
												CHANNELS 3 Xrotation Yrotation Zrotation
												End Site
												{
													OFFSET 0 0 0
												}
											}
										}
									}
								}
							}
						}
						JOINT RightShoulder_virtual
						{
							OFFSET 0.000000 0.000000 0.000000
							CHANNELS 3 Xrotation Yrotation Zrotation
							JOINT RightShoulder
							{
								OFFSET -7.570500 7.247704 -3.868750
								CHANNELS 3 Xrotation Yrotation Zrotation
								JOINT RightShoulder_split
								{
									OFFSET -7.570500 7.247704 -3.868750
									CHANNELS 3 Xrotation Yrotation Zrotation
									JOINT RightArm
									{
										OFFSET -9.308998 -2.777710 0.208500
										CHANNELS 3 Xrotation Yrotation Zrotation
										JOINT RightForeArm
										{
											OFFSET -29.972300 0.000000 0.000000
											CHANNELS 3 Xrotation Yrotation Zrotation
											JOINT RightHand
											{
												OFFSET -26.026505 0.000000 0.000000
												CHANNELS 3 Xrotation Yrotation Zrotation
												End Site
												{
													OFFSET 0 0 0
												}
											}
										}
									}
								}
							}
						}
					}
				}
			}
		}
	}
}
MOTION
Frames: 6
Frame Time: 0.03333333
-0.317095 73.379822 -5.110437 0.000000 0.000000 0.000000 -1.225262 -49.228756 2.936669 -35.465549 11.317639 25.667482 55.741075 -12.594523 1.196176 -17.190113 -2.297850 -14.655549 -2.629257 -1.896035 -0.978665 0.000000 0.000000 0.000000 -2.095662 -46.915319 2.775341 -22.240131 -11.767631 -31.718125 56.795250 11.792681 -3.475605 -28.554350 -25.610054 33.916288 3.728587 10.889717 -17.158197 0.000000 0.000000 0.000000 -5.853591 -43.241255 -0.069792 3.866012 5.144992 -1.140505 3.727922 -0.381520 -1.247649 0.165130 -0.137042 0.092149 0.000000 0.000000 0.000000 6.124763 0.892119 0.041631 4.913603 14.342144 3.877781 -9.224436 1.852086 -23.649054 0.000000 0.000000 0.000000 6.174132 -0.740189 -1.589098 2.597541 6.111144 -3.241796 2.796549 -6.963128 0.680068 -61.901902 9.365542 -39.735961 170.785124 -64.106851 167.591737 0.000000 0.000000 0.000000 6.502422 -0.545978 -0.421181 -6.313806 12.108014 -6.224100 -3.741854 -5.990124 3.234676 -49.443142 23.687940 91.429274 -150.757465 72.179861 150.753531 0.000000 0.000000 0.000000 
-0.260482 73.372269 -5.148024 0.000000 0.000000 0.000000 -1.105299 -49.263313 3.195408 -35.269932 11.528558 25.218249 55.278135 -12.743458 1.064919 -17.174097 -2.153560 -14.317346 -2.709768 -2.012372 -0.762840 0.000000 0.000000 0.000000 -2.187069 -47.054345 2.939086 -22.622454 -12.070490 -32.042415 57.024942 11.948356 -3.057491 -28.612171 -25.805464 33.404936 4.093843 10.858378 -17.244633 0.000000 0.000000 0.000000 -5.598494 -43.689390 0.196595 3.918711 5.346848 -1.360055 3.746658 -0.339747 -0.993992 0.265523 -0.059094 0.184207 0.000000 0.000000 0.000000 6.140166 1.015654 0.085449 4.765703 14.323230 3.783208 -10.258815 1.936376 -23.419009 0.000000 0.000000 0.000000 6.375308 -0.673486 -1.261054 2.483519 5.390877 -3.566569 3.563852 -6.327594 2.128275 -61.648003 11.047818 -40.719027 166.040997 -64.976129 163.040714 0.000000 0.000000 0.000000 6.590796 -0.425106 -0.233106 -6.227782 12.485603 -6.716705 -3.290977 -4.945897 1.851763 -50.440322 23.896966 91.223727 -152.548437 71.544825 152.560021 0.000000 0.000000 0.000000 
-0.109826 73.425621 -5.063482 0.000000 0.000000 0.000000 -0.893754 -49.635599 3.664884 -34.727906 11.731179 24.582126 54.753074 -13.118022 1.130306 -17.345071 -2.014643 -14.141788 -2.833739 -2.158887 -0.690301 0.000000 0.000000 0.000000 -1.978718 -47.587598 3.338536 -22.924034 -11.906025 -32.150896 57.021667 12.261922 -2.903810 -28.302654 -25.759988 32.996726 3.496510 10.832426 -17.235535 0.000000 0.000000 0.000000 -5.027541 -44.427946 0.834233 3.824421 5.719648 -1.695324 3.731667 -0.204777 -0.674777 0.233604 -0.111136 0.167825 0.000000 0.000000 0.000000 6.183535 1.324676 0.275149 4.458037 14.480527 3.380034 -10.805153 2.368025 -23.122709 0.000000 0.000000 0.000000 6.739077 -0.430605 -0.758823 2.106645 4.640831 -3.191498 4.444345 -4.498868 3.598031 -62.500356 13.561023 -42.303501 162.529160 -64.665390 159.703442 0.000000 0.000000 0.000000 6.447398 -0.147200 0.032590 -5.896951 13.022911 -7.207630 -2.973293 -4.639978 1.148731 -51.583115 24.515400 91.004983 -154.238307 71.173918 154.218486 0.000000 0.000000 0.000000 
0.043912 73.555351 -4.806438 0.000000 0.000000 0.000000 -0.533990 -50.277702 4.256449 -33.839028 12.059781 23.884077 54.184990 -13.469849 1.226117 -17.826357 -1.654747 -13.901870 -2.889335 -2.309333 -0.754222 0.000000 0.000000 0.000000 -1.384736 -48.444056 3.919612 -23.059012 -11.224718 -31.932675 56.610121 12.640719 -3.114096 -28.117865 -25.484191 32.146552 2.582546 10.690942 -17.111750 0.000000 0.000000 0.000000 -4.142064 -45.525181 1.791591 3.499904 6.158044 -2.005021 3.567806 0.022203 -0.442304 0.105569 -0.198354 0.109562 0.000000 0.000000 0.000000 6.193448 1.742680 0.499417 4.102816 14.776508 2.764088 -10.477336 3.669633 -22.817451 0.000000 0.000000 0.000000 6.999750 -0.038509 -0.263475 1.692402 4.291949 -2.042910 5.715813 -2.741013 3.937061 -63.733868 15.644748 -44.281810 161.685932 -63.812572 158.777282 0.000000 0.000000 0.000000 6.083579 0.200859 0.196471 -5.474237 13.621225 -7.593932 -2.548767 -4.802905 1.386343 -52.647269 25.492173 90.858714 -155.604728 71.174546 155.517178 0.000000 0.000000 0.000000 
0.119472 73.828392 -4.445297 0.000000 0.000000 0.000000 0.050023 -51.404813 4.896465 -32.570471 12.552908 23.279662 53.675981 -13.629100 1.255140 -18.557084 -0.763528 -13.499830 -2.690663 -2.405233 -0.922586 0.000000 0.000000 0.000000 -0.355649 -49.643150 4.687089 -23.301691 -9.956561 -31.515340 55.759260 13.073255 -3.597912 -28.039240 -24.845525 30.760068 2.457833 10.297223 -17.007332 0.000000 0.000000 0.000000 -2.965718 -47.026655 2.928392 2.981788 6.530212 -2.149062 3.130272 0.287831 -0.440976 -0.054503 -0.213516 0.006758 0.000000 0.000000 0.000000 6.060729 2.170435 0.587436 3.905164 15.181228 2.006265 -9.290547 5.885067 -22.496369 0.000000 0.000000 0.000000 7.002436 0.412384 0.053335 1.337509 4.586271 -0.397402 5.565285 -3.051685 3.073807 -63.780429 17.353357 -45.238600 162.823964 -62.232770 159.737976 0.000000 0.000000 0.000000 5.557036 0.511242 0.181636 -5.049408 14.101007 -7.876899 -2.190064 -5.723595 1.931907 -53.777348 26.833964 90.867635 -156.536693 71.652298 156.361267 0.000000 0.000000 0.000000 
0.096802 74.302673 -4.012257 0.000000 0.000000 0.000000 0.856752 -53.125034 5.532411 -30.662321 13.358049 22.786577 53.108754 -13.384299 1.120699 -19.698476 0.868838 -12.580547 -2.184018 -2.442465 -1.177551 0.000000 0.000000 0.000000 0.849771 -51.360041 5.457125 -24.132358 -8.362072 -31.099839 54.564220 13.624798 -4.066348 -27.326815 -23.675363 29.407656 3.309162 9.685112 -17.080360 0.000000 0.000000 0.000000 -1.701918 -48.927637 3.975947 2.484792 6.660553 -2.018071 2.345744 0.505391 -0.703736 -0.107068 -0.224237 -0.063355 0.000000 0.000000 0.000000 5.649694 2.494922 0.489708 3.999035 15.661446 1.214292 -7.464022 8.805075 -22.253940 0.000000 0.000000 0.000000 6.714195 0.783902 0.148982 1.119670 5.542595 1.530119 4.230282 -4.863352 2.205093 -62.665620 17.953914 -44.714626 164.360566 -60.474153 161.023991 0.000000 0.000000 0.000000 5.026381 0.716245 -0.016034 -4.718287 14.291783 -8.098599 -2.084282 -7.084662 2.290495 -55.169484 28.517483 91.171448 -157.035365 72.554832 156.816185 0.000000 0.000000 0.000000 
